<?xml version="1.0" encoding="utf-8"?>

<!-- Generator: Adobe Illustrator 16.0.3, SVG Export Plug-In . SVG Version: 6.00 Build 0)  -->

<!DOCTYPE svg PUBLIC "-//W3C//DTD SVG 1.1//EN" "http://www.w3.org/Graphics/SVG/1.1/DTD/svg11.dtd">

<svg version="1.1" id="Ebene_1" xmlns="http://www.w3.org/2000/svg" xmlns:xlink="http://www.w3.org/1999/xlink" x="0px" y="0px"

	 width="180px" height="24px" viewBox="0 0 180 24" enable-background="new 0 0 180 24" xml:space="preserve">

<g>

	<path fill-rule="evenodd" clip-rule="evenodd" d="M158.02,17.285h4.084V8.937c0-1.864,0.563-2.783,1.988-2.783

		c1.449,0,2.014,0.894,2.014,2.783v8.349h4.084V8.937c0-1.864,0.566-2.783,1.988-2.783c1.451,0,2.018,0.894,2.018,2.783v8.349h4.084

		V8.719c0-3.97-1.344-5.942-4.328-5.942c-1.664,0-3.09,0.757-4.324,2.271c-0.809-1.514-2.043-2.271-3.764-2.271

		c-1.396,0-2.713,0.568-3.76,1.648V3.102h-4.084V17.285 M154.93,3.102h-4.111v8.348c0,1.891-0.512,2.756-2.258,2.756

		c-1.396,0-1.961-0.865-1.961-2.756V3.102h-4.109v8.563c0,3.97,1.369,5.942,4.352,5.942c1.639,0,2.902-0.539,3.977-1.647v1.325

		h4.111V3.102z M130.76,8.586c0.24-1.892,1.207-2.892,2.74-2.892c1.531,0,2.525,1,2.74,2.892H130.76z M130.732,11.095h9.484

		c0-0.241,0.025-0.482,0.025-0.699c0-4.837-2.605-7.726-6.689-7.726c-4.057,0-6.904,3.054-6.904,7.808

		c0,4.51,2.605,7.292,6.662,7.292c3.225,0,5.563-1.376,6.852-4.024l-3.035-1.514c-0.754,1.704-1.854,2.567-3.305,2.567

		C131.914,14.799,130.811,13.529,130.732,11.095z M114.533,12.61l-2.5,2.188c1.184,1.945,3.359,2.971,6.451,2.971

		c4.164,0,6.635-2.026,6.635-4.969c0-2.783-1.664-3.514-5.213-4.35c-1.934-0.46-2.928-0.543-2.928-1.541

		c0-0.729,0.617-1.27,1.666-1.27c1.262,0,2.498,0.513,3.654,1.487l2.313-2.514c-1.641-1.351-3.521-1.998-5.67-1.998

		c-3.816,0-6.049,1.943-6.049,4.997c0,2.054,1.211,3.078,3.896,3.864c1.264,0.376,2.445,0.43,3.334,0.754

		c0.482,0.163,0.832,0.649,0.832,1.054c0,0.811-0.779,1.35-2.15,1.35C117.086,14.635,115.689,13.986,114.533,12.61z M109.967,3.102

		h-4.111v8.348c0,1.891-0.512,2.756-2.258,2.756c-1.396,0-1.959-0.865-1.959-2.756V3.102h-4.113v8.563

		c0,3.97,1.371,5.942,4.354,5.942c1.639,0,2.902-0.539,3.977-1.647v1.325h4.111V3.102z M74.369,17.285h4.084V8.937

		c0-1.864,0.563-2.783,1.988-2.783c1.451,0,2.015,0.894,2.015,2.783v8.349h4.084V8.937c0-1.864,0.565-2.783,1.989-2.783

		c1.449,0,2.016,0.894,2.016,2.783v8.349h4.084V8.719c0-3.97-1.344-5.942-4.326-5.942c-1.666,0-3.09,0.757-4.326,2.271

		c-0.806-1.514-2.041-2.271-3.761-2.271c-1.398,0-2.715,0.568-3.763,1.648V3.102h-4.084V17.285z"/>

	<path fill-rule="evenodd" clip-rule="evenodd" d="M36.152,15.717v0.217c0,0.512,0.08,0.971,0.213,1.352h3.896

		c-0.321-0.461-0.402-1.298-0.402-2.512v-0.624l0.081-6.455V7.532c0-3.458-1.64-4.89-6.021-4.89c-3.948,0-6.152,1.647-6.152,4.458

		l4.003,0.054c0.027-1.244,0.699-1.813,2.097-1.813c1.422,0,1.96,0.596,1.96,1.973v0.624c-2.281,0.513-4.19,0.78-5.641,1.349

		c-1.908,0.756-2.984,2.271-2.984,4.242c0,2.486,1.775,4.215,4.622,4.215C33.652,17.744,35.076,17.095,36.152,15.717 M59.55,14.367

		c-1.745,0-2.874-1.541-2.874-4.324c0-2.782,1.156-4.294,2.874-4.294c1.748,0,2.849,1.512,2.849,4.294

		C62.398,12.826,61.298,14.367,59.55,14.367z M52.592,22.037h4.084v-5.941c1.022,0.945,2.258,1.404,3.789,1.404

		c3.573,0,6.045-2.946,6.045-7.457c0-4.646-2.363-7.267-5.99-7.267c-1.775,0-3.145,0.541-4.167,1.674V3.102h-3.761V22.037z

		 M42.89,17.285h4.086v-7.89c0-1.919,0.887-2.647,3.143-2.647c0.242,0,0.51,0,0.779,0.027V2.965

		c-1.343,0.081-2.714,0.568-4.083,1.595V3.102H42.89V17.285z M35.827,10.505v0.811c0,2.214-1.154,3.483-3.009,3.483

		c-1.127,0-1.8-0.622-1.8-1.595C31.019,11.558,32.523,11.341,35.827,10.505z"/>

	<path fill-rule="evenodd" clip-rule="evenodd" d="M13.459,1.963c3.913,0,6.128,2.017,6.128,5.771

		c0,4.556-6.651,10.225-10.563,10.225c-2.689,0-7.304-1.948-7.304-5.897C1.721,5.897,9.726,1.963,13.459,1.963 M12.153,6.945

		c1.142,0,1.957,0.854,1.957,1.902c0,1.934-2.592,4.392-4.368,4.392c-1.386,0-2.412-1.212-2.412-2.23

		C7.33,9.403,10.688,6.945,12.153,6.945z"/>

</g>

</svg>

